<svg id="图层_1" data-name="图层 1" xmlns="http://www.w3.org/2000/svg" viewBox="0 0 256 256"><title>画板 1</title><path d="M47.65,164.17c-3.78-14.56,3.72-28.89,13-39.72s21.24-19.23,33.87-25.76C122.92,84,154.87,78.38,184.32,66.22c15.4-6.37,30.23-14.58,42.5-26,1.27-1.18-.52-1.89-1.57-2.1-1.5-.29-4.2-.23-5.42.91-23.39,21.76-54.66,30.55-84.41,39.83C106.71,87.82,76.72,98.41,55.66,121c-10.71,11.47-20.21,27.47-16,43.7.63,2.43,8.48,1.4,8-.49Z"/><path d="M219.92,39.39c-5.19,6.23-7.22,14.19-8.17,22.08-1.05,8.61-1.2,17.33-1.67,26-1,17.86-2.48,36.2-9.94,52.71-7.24,16-19.9,28.81-34.09,38.86A128.89,128.89,0,0,1,118.74,200c-17.66,3.76-36.89,2.9-51.9-8.1-1.71-1.25-9.22.37-6.75,2.18,14.14,10.37,32.61,12.53,49.64,10.64a135,135,0,0,0,51.65-17.18c15.65-8.94,30.27-20.9,40.33-36,10.45-15.68,14-34.36,15.55-52.84.87-10.49,1.13-21,1.88-31.52.68-9.71,2.1-19.81,8.53-27.53,1.05-1.25-2.44-1.72-2.94-1.73-1.61-.06-3.72.21-4.81,1.52Z"/><path d="M39.56,216c15.55-28.68,37.67-54.21,66.4-70.23a135.09,135.09,0,0,1,25.36-10.91c1.1-.35,2.54-1.37,1.18-2.34s-4.06-.42-5.5,0c-32.38,10.17-59.76,31.91-79.76,59A207.68,207.68,0,0,0,31.8,216c-1,1.85,6.61,2.1,7.76,0Z"/></svg>