<svg id="图层_1" data-name="图层 1" xmlns="http://www.w3.org/2000/svg" viewBox="0 0 256 256"><title>画板 1</title><path d="M51.64,163.93c-3.76-14.46,3.67-28.54,12.86-39.29,9-10.51,20.65-18.67,32.88-25C125.8,85,157.77,79.34,187.21,67.17c15.6-6.44,30.69-14.79,43.11-26.34,2.52-2.35-1-3.82-3.14-4.2-3-.54-8.37-.49-10.85,1.82-23,21.42-53.72,30-83,39.16S73.6,97.5,52.16,120.37c-10.92,11.65-20.8,28-16.49,44.54,1.26,4.85,16.95,2.8,16-1Z"/><path d="M218,39.29c-5.28,6.32-7.31,14.49-8.28,22.52-1,8.6-1.2,17.32-1.67,26-1,17.71-2.43,35.89-9.83,52.26-7.18,15.87-19.66,28.49-33.72,38.45a129.33,129.33,0,0,1-22,12.47,118.83,118.83,0,0,1-23,7.54c-2.23.48-4.47.89-6.72,1.21-.94.14-.06,0,.11,0l-2,.23c-1.2.13-2.41.23-3.62.32l-1.61.09c-.48,0-1.17,0-.29,0-1.2,0-2.41,0-3.62,0s-2.4-.07-3.6-.15c0,0-1.25-.1-.62,0s-1.23-.14-1.42-.16a50,50,0,0,1-23.94-9.27c-2.74-2-8-1.22-11-.23-2.17.72-5.29,2.55-2.5,4.6,15,11,35.09,13.14,53.16,11.15a142,142,0,0,0,54.42-17.89c16-9.15,31-21.32,41.3-36.78,10.52-15.79,14.11-34.68,15.66-53.28.87-10.49,1.13-21,1.87-31.52.68-9.6,2.07-19.47,8.43-27.1,2.07-2.48-4.87-3.45-5.89-3.46-3.24,0-7.4.38-9.62,3Z"/><path d="M43.44,216c15.34-28.29,37.1-53.6,65.46-69.41A130,130,0,0,1,133.48,136c1.93-.61,5.37-3,2.37-4.67s-7.84-.93-11,.06c-33.07,10.38-61,32.48-81.48,60.17A207.68,207.68,0,0,0,27.92,216c-1.52,2.79,4.58,3.32,6,3.3,2.74,0,8-.45,9.54-3.31Z"/></svg>