<?xml version="1.0" standalone="no"?><!DOCTYPE svg PUBLIC "-//W3C//DTD SVG 1.1//EN" "http://www.w3.org/Graphics/SVG/1.1/DTD/svg11.dtd"><svg t="1621340628592" class="icon" viewBox="0 0 1024 1024" version="1.1" xmlns="http://www.w3.org/2000/svg" p-id="1773" xmlns:xlink="http://www.w3.org/1999/xlink" width="200" height="200"><defs><style type="text/css"></style></defs><path d="M820.086784 192.38912M820.086784 192.38912l-0.019456 0.023552c-5.545984-5.376-13.101056-8.689664-21.434368-8.689664-17.012736 0-30.804992 13.792256-30.804992 30.804992 0 10.37312 5.132288 19.540992 12.991488 25.12384l-0.02048 0.023552c2.403328 2.280448 4.779008 4.589568 7.122944 6.931456 69.382144 69.129216 112.52224 164.881408 112.52224 270.94016 0 105.868288-43.140096 201.619456-112.52224 270.939136-69.448704 69.000192-165.137408 111.944704-270.971904 111.944704-105.802752 0-201.525248-42.944512-270.8736-111.944704-69.225472-69.31968-112.108544-165.070848-112.108544-270.939136 0-106.058752 42.883072-201.810944 112.108544-270.94016 69.348352-69.382144 165.071872-112.32768 270.8736-112.32768 38.453248 0 75.56608 5.671936 110.567424 16.22016l0-0.001024c3.330048 1.231872 6.931456 1.907712 10.688512 1.907712 17.012736 0 30.804992-13.792256 30.804992-30.804992 0-14.880768-10.551296-27.296768-24.580096-30.175232l0-0.001024c-40.38656-12.08832-83.186688-18.584576-127.521792-18.584576-122.77248 0-233.847808 49.833984-314.318848 130.343936-80.32768 80.216064-130.08896 191.326208-130.08896 314.395648 0 122.847232 49.76128 233.956352 130.08896 314.392576 80.47104 80.06656 191.546368 129.89952 314.318848 129.89952 122.810368 0 233.843712-49.83296 314.432512-129.89952 80.509952-80.437248 130.569216-191.546368 130.569216-314.392576 0-123.06944-50.059264-234.17856-130.569216-314.395648" p-id="1774"></path><path d="M752.128 484.352l-268.288 0 0 61.44 268.288 0c16.965632 0 30.72-13.754368 30.72-30.72S769.093632 484.352 752.128 484.352z" p-id="1775"></path><path d="M545.28 545.792 545.28 217.088c0-16.965632-13.754368-30.72-30.72-30.72s-30.72 13.754368-30.72 30.72l0 328.704L545.28 545.792z" p-id="1776"></path></svg>