<?xml version="1.0" standalone="no"?><!DOCTYPE svg PUBLIC "-//W3C//DTD SVG 1.1//EN" "http://www.w3.org/Graphics/SVG/1.1/DTD/svg11.dtd"><svg t="1621340671055" class="icon" viewBox="0 0 1024 1024" version="1.1" xmlns="http://www.w3.org/2000/svg" p-id="2042" xmlns:xlink="http://www.w3.org/1999/xlink" width="200" height="200"><defs><style type="text/css"></style></defs><path d="M621.688 655.78 382.29 655.78c-22.352 0-44.309 4.519-63.578 12.709-62.574 25.955-103.387 87.186-103.387 154.563l0 26.563 573.542 0 0-26.563c0-55.781-28.104-108.085-74.457-139.075-8.819-5.933-18.874-11.382-28.93-15.487-9.84-4.104-20.309-7.276-31.188-9.536C643.627 657.107 632.764 655.78 621.688 655.78L621.688 655.78zM641.781 592.491 641.781 592.491c8.424 0.717 17.027 1.846 24.825 3.603 14.572 2.975 29.341 7.276 43.286 13.228 85.535 35.489 143.181 121.132 143.181 213.73l0 58.684c0 17.745-14.573 32.085-31.798 32.085l-1.022 0L183.115 913.821c-17.853 0-32.209-14.34-32.209-32.085l0-0.718 0-57.966c0-92.921 57.035-177.737 142.982-213.73 21.527-9.141 44.918-14.984 68.507-16.633-83.492-48.917-135.58-140.402-135.58-237.319 0-151.604 125.13-275.192 275.067-275.192 151.604 0 275.694 124.915 275.694 275.192C777.575 452.287 725.487 543.36 641.781 592.491L641.781 592.491zM501.881 144.383 501.881 144.383c-84.513 0-162.251 51.173-195.071 130.362-10.467 24.611-15.791 52.411-15.791 80.624 0 84.406 50.869 162.036 128.822 194.767 52.303 22.154 111.793 22.154 164.294 0 78.168-33.018 129.235-110.361 129.235-194.767C713.371 239.757 619.017 144.383 501.881 144.383L501.881 144.383z" p-id="2043"></path></svg>